<svg width="100pt" height="100pt" version="1.1" viewBox="0 0 100 100" xmlns="http://www.w3.org/2000/svg">
 <path d="m93.641 38.547-6.4062-1.5625c-2.3008-0.58203-4.2617-2.0898-5.4062-4.1719-0.28125-0.53125-0.59375-1.0469-0.90625-1.5625-1.2852-2.0469-1.6484-4.543-1-6.875l1.8281-6.3594c0.53125-1.8828-0.27734-3.8867-1.9688-4.875l-12.688-7.4062c-1.6953-0.97266-3.832-0.66797-5.1875 0.73438l-4.5938 4.6875c-1.6523 1.7227-3.957 2.6641-6.3438 2.5938h-1.9375c-2.3867 0.070312-4.6914-0.87109-6.3438-2.5938l-4.5938-4.6875c-1.3555-1.4023-3.4922-1.707-5.1875-0.73438l-12.688 7.3281c-1.6914 0.98828-2.5 2.9922-1.9688 4.875l1.8281 6.3594c0.64844 2.332 0.28516 4.8281-1 6.875-0.3125 0.51562-0.60938 1.0312-0.90625 1.5625-1.1406 2.0938-3.0977 3.6133-5.4062 4.2031l-6.4062 1.5625c-1.9141 0.47266-3.2539 2.1992-3.2344 4.1719v14.656c0 1.957 1.3359 3.6562 3.2344 4.125l6.4062 1.5625c2.3086 0.58984 4.2656 2.1094 5.4062 4.2031 0.29688 0.53125 0.59375 1.0469 0.90625 1.5625 1.2852 2.0469 1.6484 4.543 1 6.875l-1.8281 6.3594c-0.53125 1.8828 0.27734 3.8867 1.9688 4.875l12.688 7.3281c1.6953 0.97266 3.832 0.66797 5.1875-0.73438l4.5938-4.6875c1.6523-1.7227 3.957-2.6641 6.3438-2.5938h1.9375c2.3867-0.070313 4.6914 0.87109 6.3438 2.5938l4.5938 4.6875c1.3555 1.4023 3.4922 1.707 5.1875 0.73438l12.688-7.3281c1.6914-0.98828 2.5-2.9922 1.9688-4.875l-1.8281-6.3594c-0.64844-2.332-0.28516-4.8281 1-6.875 0.3125-0.51562 0.625-1.0312 0.90625-1.5625 1.1406-2.0938 3.0977-3.6133 5.4062-4.2031l6.4062-1.5625c1.8984-0.46875 3.2344-2.168 3.2344-4.125v-14.656c0-1.957-1.3359-3.6562-3.2344-4.125zm-43.641 32.766c-5.6523 0-11.074-2.2461-15.07-6.2422-3.9961-3.9961-6.2422-9.418-6.2422-15.07s2.2461-11.074 6.2422-15.07c3.9961-3.9961 9.418-6.2422 15.07-6.2422s11.074 2.2461 15.07 6.2422c3.9961 3.9961 6.2422 9.418 6.2422 15.07s-2.2461 11.074-6.2422 15.07c-3.9961 3.9961-9.418 6.2422-15.07 6.2422z" fill="currentColor"/>
</svg>

