<svg  version="1.1" viewBox="0 0 100 100" xmlns="http://www.w3.org/2000/svg">
 <g fill="currentColor">
  <path d="m59 57.898c-4.6016-2.1992-12.398-4.6992-18.699-5.3984-11.199-1.1992-16.5-5.3008-25.102-4.8984-8.6016 0.30078-6.5 1.8008 1.6992 8.6992 6.1992 5.1992-2.8008 2.1016-8.3008 1.6016-8.5-0.69922-5.8984 3.6016-3.3984 4.5 2.5 1 4.1016 1.6992 0.69922 1.3008-3.3984-0.30078-5.1992 0.69922-0.19922 4.1016 5 3.3984 16.398 5.8984 22.301 7.3984 6 1.6016-11.398 2.6016-4.5 5.3008 6.8008 2.6992 22.199 5.5 28.199 6.8984-0.19922-1.5 0.10156-3.1992 0.89844-4.6016 1.6992-2.8008 1.3984-5.1992 0.89844-8.3984-0.39844-3-0.80078-6.5 0.69922-10.102 0.90625-2.5 2.6055-4.8008 4.8047-6.4023z"/>
  <path d="m72.301 60.801c-5.3008-2.1992-11.199 0.39844-13.301 5.5977-2.3008 5.6016 2.5 11.5-2 19.203-0.80078 1.3984 0.39844 3.1016 1.8984 2.8008 11-2.1992 16.801-8.8008 19-14.301 2.2031-5.2031-0.39844-11.203-5.5977-13.301z"/>
  <path d="m91.898 12.301c-4.8008-1.8984-10.199 0.60156-11.801 5.5l-12 36.898h0.30078c2 0 4 0.39844 5.8008 1.1016 2 0.80078 3.6992 2 5.1992 3.5l17.102-34.898c2.3984-4.6016 0.19922-10.203-4.6016-12.102z"/>
 </g>
</svg>