<svg viewBox="0 0 100 100" xmlns="http://www.w3.org/2000/svg">
 <path d="m89.348 48.746c-2.6875-2.957-7.1562-4.8594-11.125-4.7383-3.7383 0.11328-6.5977 2.1914-8.0469 5.8438-0.41797 1.0508-0.66016 2.3164-0.91797 3.6562-0.52734 2.7305-1.0703 5.5586-3.1016 6.5273-0.71094 0.33594-1.4414 0.30078-2.1836-0.10938-1.5703-0.87109-2.7031-3.1133-2.8906-4.7773-0.24219-2.1406 0.64844-3.9688 1.5938-5.9102 0.43359-0.89062 0.87891-1.8086 1.2109-2.7578 1.2383-3.5859 0.89453-6.9023-0.0625-11.09-2.1016-9.1953-11.785-14.047-19.895-14.668-6.8945-0.52734-15.379 1.7266-18.516 9.6367-2.5742 6.4961-1.4688 12.684-0.29687 19.234l0.40234 2.2812c0.42969 2.5078 0.054688 4.3164-1.082 5.2305-1.2422 1-3.4453 0.96875-6.0352-0.082031-0.69531-0.28125-1.3672-0.80469-2.0742-1.3633-1.0391-0.8125-2.1094-1.6484-3.4062-1.8242-2.2656-0.30469-5.1172 1.4062-5.9453 5.1758-0.91406 4.0898 1.5117 9.4141 4.3438 11.824 3.4336 2.9219 8.3398 5.0391 10.801 5.7539 6.5117 1.8828 11.555 1.8047 14.988-0.22656 5.4219-3.2148 5.8242-12.316 4.0273-17.656l-0.52734-1.5273c-1.5312-4.3594-3.1172-8.8672 0.38672-12.387 0.86719-0.87109 1.8125-1.2305 2.8125-1.0586 1.5586 0.26562 3.2422 1.8516 4.2852 4.0391 1.75 3.5273 1.5898 7.5898 1.4141 11.891-0.21484 5.3203-0.43359 10.824 3.2852 15.211 5.3242 6.2852 14.953 4.5859 20.219 3.0156 6.9062-2.0625 13.871-4.7891 18.07-10.703 3.7656-5.3164 2.1914-14.121-1.7344-18.441zm-4.9883 8.2461c0.039063 1.0781-0.80078 1.9805-1.8828 2.0195-1.0781 0.039062-1.9805-0.80469-2.0234-1.8828-0.035156-1.0781 0.80469-1.9844 1.8867-2.0195 1.0781-0.039063 1.9844 0.80078 2.0195 1.8828zm4.0234-3.4258c1.0781-0.035156 1.9844 0.80469 2.0234 1.8828s-0.80859 1.9844-1.8828 2.0234c-1.0781 0.039063-1.9844-0.80469-2.0234-1.8828s0.80859-1.9844 1.8828-2.0234z" fill="currentColor"/>
</svg>